<svg width="24" height="24" viewBox="0 0 24 24" fill="none" xmlns="http://www.w3.org/2000/svg">
<path fill-rule="evenodd" clip-rule="evenodd" d="M6.32857 8.34749L6.93157 15.5195C6.97557 16.0715 7.42657 16.4855 7.97757 16.4855H7.98157H18.8926H18.8946C19.4156 16.4855 19.8606 16.0975 19.9346 15.5825L20.8846 9.02349C20.9066 8.86749 20.8676 8.71149 20.7726 8.58549C20.6786 8.45849 20.5406 8.37649 20.3846 8.35449C20.1756 8.36249 11.5026 8.35049 6.32857 8.34749V8.34749ZM7.97557 17.9855C6.65857 17.9855 5.54357 16.9575 5.43657 15.6425L4.52057 4.74849L3.01357 4.48849C2.60457 4.41649 2.33157 4.02949 2.40157 3.62049C2.47357 3.21149 2.86857 2.94549 3.26857 3.00949L5.34857 3.36949C5.68357 3.42849 5.93857 3.70649 5.96757 4.04649L6.20257 6.84749C20.4786 6.85349 20.5246 6.86049 20.5936 6.86849C21.1506 6.94949 21.6406 7.24049 21.9746 7.68849C22.3086 8.13549 22.4486 8.68649 22.3686 9.23849L21.4196 15.7965C21.2406 17.0445 20.1566 17.9855 18.8966 17.9855H18.8916H7.98357H7.97557Z" fill="#07143B"/>
<path fill-rule="evenodd" clip-rule="evenodd" d="M17.2876 12.0439H14.5156C14.1006 12.0439 13.7656 11.7079 13.7656 11.2939C13.7656 10.8799 14.1006 10.5439 14.5156 10.5439H17.2876C17.7016 10.5439 18.0376 10.8799 18.0376 11.2939C18.0376 11.7079 17.7016 12.0439 17.2876 12.0439" fill="#07143B"/>
<path fill-rule="evenodd" clip-rule="evenodd" d="M7.545 20.7021C7.846 20.7021 8.089 20.9451 8.089 21.2461C8.089 21.5471 7.846 21.7911 7.545 21.7911C7.243 21.7911 7 21.5471 7 21.2461C7 20.9451 7.243 20.7021 7.545 20.7021" fill="#07143B"/>
<mask id="mask0" style="mask-type:alpha" maskUnits="userSpaceOnUse" x="7" y="20" width="2" height="2">
<path fill-rule="evenodd" clip-rule="evenodd" d="M7 21.2452C7 21.5472 7.243 21.7912 7.546 21.7912V21.7912C7.847 21.7912 8.09 21.5472 8.09 21.2452V21.2452C8.09 20.9442 7.847 20.7012 7.546 20.7012V20.7012C7.243 20.7012 7 20.9442 7 21.2452V21.2452Z" fill="white"/>
</mask>
<g mask="url(#mask0)">
<path fill-rule="evenodd" clip-rule="evenodd" d="M2 26.7902H13.089V15.7012H2V26.7902Z" fill="#07143B"/>
</g>
<path fill-rule="evenodd" clip-rule="evenodd" d="M7.544 21.0411C7.431 21.0411 7.339 21.1331 7.339 21.2461C7.339 21.4731 7.75 21.4731 7.75 21.2461C7.75 21.1331 7.657 21.0411 7.544 21.0411M7.544 22.5411C6.83 22.5411 6.25 21.9601 6.25 21.2461C6.25 20.5321 6.83 19.9521 7.544 19.9521C8.258 19.9521 8.839 20.5321 8.839 21.2461C8.839 21.9601 8.258 22.5411 7.544 22.5411" fill="#07143B"/>
<path fill-rule="evenodd" clip-rule="evenodd" d="M18.8263 20.7021C19.1273 20.7021 19.3713 20.9451 19.3713 21.2461C19.3713 21.5471 19.1273 21.7911 18.8263 21.7911C18.5243 21.7911 18.2812 21.5471 18.2812 21.2461C18.2812 20.9451 18.5243 20.7021 18.8263 20.7021" fill="#07143B"/>
<mask id="mask1" style="mask-type:alpha" maskUnits="userSpaceOnUse" x="18" y="20" width="2" height="2">
<path fill-rule="evenodd" clip-rule="evenodd" d="M18.2812 21.2452C18.2812 21.5472 18.5243 21.7912 18.8263 21.7912V21.7912C19.1263 21.7912 19.3713 21.5472 19.3713 21.2452V21.2452C19.3713 20.9442 19.1263 20.7012 18.8263 20.7012V20.7012C18.5243 20.7012 18.2812 20.9442 18.2812 21.2452V21.2452Z" fill="white"/>
</mask>
<g mask="url(#mask1)">
<path fill-rule="evenodd" clip-rule="evenodd" d="M13.2812 26.7902H24.3713V15.7012H13.2812V26.7902Z" fill="#07143B"/>
</g>
<path fill-rule="evenodd" clip-rule="evenodd" d="M18.8252 21.0411C18.7132 21.0411 18.6213 21.1331 18.6213 21.2461C18.6223 21.4751 19.0323 21.4731 19.0312 21.2461C19.0312 21.1331 18.9382 21.0411 18.8252 21.0411M18.8253 22.5411C18.1113 22.5411 17.5312 21.9601 17.5312 21.2461C17.5312 20.5321 18.1113 19.9521 18.8253 19.9521C19.5403 19.9521 20.1212 20.5321 20.1212 21.2461C20.1212 21.9601 19.5403 22.5411 18.8253 22.5411" fill="#07143B"/>
</svg>
