<svg width="24" height="24" viewBox="0 0 24 24" fill="none" xmlns="http://www.w3.org/2000/svg">
<mask id="mask0" style="mask-type:alpha" maskUnits="userSpaceOnUse" x="2" y="3" width="21" height="20">
<path fill-rule="evenodd" clip-rule="evenodd" d="M2 3H22.4725V22.501H2V3Z" fill="white"/>
</mask>
<g mask="url(#mask0)">
<path fill-rule="evenodd" clip-rule="evenodd" d="M3.82396 12.1231C5.22596 16.4851 10.765 20.0121 12.237 20.8851C13.714 20.0031 19.293 16.4371 20.65 12.1271C21.541 9.34112 20.714 5.81212 17.428 4.75312C15.836 4.24212 13.979 4.55312 12.697 5.54512C12.429 5.75112 12.057 5.75512 11.787 5.55112C10.429 4.53012 8.65496 4.23112 7.03796 4.75312C3.75696 5.81112 2.93296 9.34012 3.82396 12.1231M12.238 22.5011C12.114 22.5011 11.991 22.4711 11.879 22.4101C11.566 22.2391 4.19296 18.1751 2.39596 12.5811C2.39496 12.5811 2.39496 12.5801 2.39496 12.5801C1.26696 9.05812 2.52296 4.63212 6.57796 3.32512C8.48196 2.70912 10.557 2.98012 12.235 4.03912C13.861 3.01112 16.021 2.72712 17.887 3.32512C21.946 4.63412 23.206 9.05912 22.079 12.5801C20.34 18.1101 12.913 22.2351 12.598 22.4081C12.486 22.4701 12.362 22.5011 12.238 22.5011" fill="#07143B"/>
</g>
<path fill-rule="evenodd" clip-rule="evenodd" d="M18.1547 10.6253C17.7677 10.6253 17.4397 10.3283 17.4077 9.93626C17.3417 9.11426 16.7917 8.42026 16.0087 8.16726C15.6137 8.03926 15.3977 7.61626 15.5247 7.22326C15.6537 6.82926 16.0727 6.61526 16.4687 6.73926C17.8317 7.18026 18.7867 8.38726 18.9037 9.81426C18.9367 10.2273 18.6297 10.5893 18.2167 10.6223C18.1957 10.6243 18.1757 10.6253 18.1547 10.6253" fill="#07143B"/>
</svg>
