<svg width="18" height="17" viewBox="0 0 18 17" fill="none" xmlns="http://www.w3.org/2000/svg">
<path d="M8.04458 1.09181C8.33495 0.152137 9.66505 0.152134 9.95542 1.09181L11.1429 4.93456C11.2724 5.35357 11.6598 5.63932 12.0983 5.63932H16.0437C17.0002 5.63932 17.4109 6.8533 16.6508 7.43397L13.374 9.93723C13.0409 10.1916 12.9019 10.6267 13.0256 11.0271L14.2566 15.0108C14.5441 15.941 13.4678 16.6918 12.6941 16.1007L9.60706 13.7424C9.24866 13.4686 8.75134 13.4686 8.39294 13.7424L5.30585 16.1007C4.53216 16.6918 3.45591 15.941 3.74337 15.0108L4.9744 11.0271C5.09813 10.6267 4.95906 10.1916 4.62604 9.93723L1.34923 7.43397C0.58912 6.8533 0.999762 5.63932 1.95629 5.63932H5.90168C6.34024 5.63932 6.72762 5.35357 6.8571 4.93456L8.04458 1.09181Z" fill="#EA6A12"/>
</svg>
