<svg width="18" height="17" viewBox="0 0 18 17" fill="none" xmlns="http://www.w3.org/2000/svg">
<path d="M9.47771 1.23943L10.6652 5.08218C10.8594 5.71069 11.4405 6.13932 12.0983 6.13932H16.0437C16.522 6.13932 16.7273 6.74631 16.3472 7.03665L13.0704 9.5399C12.5709 9.92152 12.3623 10.5741 12.5479 11.1747L13.7789 15.1584C13.9226 15.6236 13.3845 15.9989 12.9977 15.7034L9.91059 13.3451C9.37299 12.9344 8.62701 12.9344 8.08941 13.3451L5.00232 15.7034C4.61548 15.9989 4.07735 15.6235 4.22108 15.1584L5.45211 11.1747C5.63771 10.5741 5.42911 9.92152 4.92957 9.5399L1.65276 7.03665C1.27271 6.74631 1.47803 6.13932 1.9563 6.13932H5.90168C6.55952 6.13932 7.14059 5.7107 7.33481 5.08218L8.52229 1.23944C8.66748 0.769593 9.33252 0.769597 9.47771 1.23943Z" stroke="#EA6A12"/>
</svg>
